<?xml version="1.0" standalone="no"?>
<!DOCTYPE svg PUBLIC "-//W3C//DTD SVG 20010904//EN"
 "http://www.w3.org/TR/2001/REC-SVG-20010904/DTD/svg10.dtd">
<svg version="1.0" xmlns="http://www.w3.org/2000/svg"
 width="900.000000pt" height="900.000000pt" viewBox="0 0 900.000000 900.000000"
 preserveAspectRatio="xMidYMid meet">
<metadata>
Created by potrace 1.14, written by Peter Selinger 2001-2017
</metadata>
<g transform="translate(0.000000,900.000000) scale(0.100000,-0.100000)"
fill="#000000" stroke="none">
<path d="M3660 8286 c-159 -26 -278 -62 -426 -131 -247 -115 -398 -269 -435
-443 -53 -256 122 -812 374 -1190 148 -222 403 -415 713 -541 242 -98 361
-105 474 -26 90 63 162 250 186 486 l6 66 -30 6 c-17 4 -60 9 -95 13 l-64 6
-7 -73 c-15 -161 -71 -335 -115 -359 -55 -29 -186 6 -386 104 -333 163 -495
325 -654 649 -195 398 -271 759 -188 899 90 154 405 310 705 349 144 19 255
-18 397 -131 152 -121 348 -382 396 -527 17 -52 13 -175 -10 -352 -25 -183
-27 -344 -6 -426 35 -133 133 -254 261 -322 69 -37 249 -108 369 -146 434
-137 589 -250 669 -485 50 -146 79 -354 96 -692 25 -486 43 -704 71 -829 82
-374 316 -691 703 -950 43 -29 126 -82 184 -117 l106 -63 49 82 c27 45 45 83
40 84 -27 9 -312 195 -388 253 -222 169 -386 380 -465 599 -56 155 -79 339
-105 846 -24 448 -48 649 -102 819 -99 317 -304 477 -825 642 -59 19 -154 54
-212 78 -274 115 -309 201 -256 616 29 227 25 366 -13 457 -59 144 -199 345
-333 479 -229 230 -432 309 -684 270z"/>
<path d="M4704 6000 c-110 -28 -171 -64 -254 -149 -135 -136 -201 -303 -250
-626 -65 -434 -95 -578 -156 -742 -61 -167 -138 -293 -303 -498 -202 -253
-602 -634 -1098 -1050 -73 -60 -132 -114 -132 -118 -1 -5 25 -39 56 -77 l57
-69 55 47 c548 462 851 742 1079 997 256 286 378 472 466 707 63 171 87 284
171 817 31 196 59 287 115 382 73 122 147 178 266 201 33 6 64 12 70 13 11 3
8 38 -11 153 -7 39 -24 40 -131 12z"/>
<path d="M3885 5636 c-123 -105 -184 -175 -266 -306 -107 -170 -138 -262 -248
-745 -39 -170 -80 -344 -91 -384 -31 -111 -86 -238 -135 -311 -89 -132 -258
-307 -422 -434 l-62 -49 30 -41 c16 -22 37 -51 47 -64 l18 -23 104 88 c208
173 379 364 465 517 53 94 116 300 179 581 114 507 142 601 222 740 84 148
167 242 322 365 23 18 42 38 42 43 0 13 -78 117 -88 117 -4 0 -56 -42 -117
-94z"/>
<path d="M4956 4778 c-2 -7 -10 -60 -16 -118 -14 -121 -56 -298 -93 -388 -124
-308 -384 -554 -1080 -1023 -138 -93 -253 -174 -255 -179 -2 -5 15 -36 38 -70
l41 -60 232 157 c859 580 1114 851 1227 1299 23 94 60 316 60 364 0 9 -23 15
-103 25 -34 5 -48 3 -51 -7z"/>
<path d="M4410 3489 c-30 -22 -59 -44 -63 -48 -5 -5 18 -49 51 -97 83 -126
137 -219 169 -294 37 -89 37 -210 1 -322 l-26 -77 80 -27 c45 -14 84 -22 88
-18 5 5 21 50 36 99 20 68 27 114 27 185 2 113 -15 175 -80 305 -59 118 -194
329 -213 332 -8 1 -40 -16 -70 -38z"/>
<path d="M3260 2909 c-247 -14 -454 -105 -630 -275 l-55 -53 -65 49 c-62 46
-66 48 -84 32 -15 -14 -39 -17 -145 -16 -138 1 -149 3 -481 99 -423 122 -562
149 -753 143 -117 -3 -143 -8 -227 -36 -181 -62 -363 -183 -531 -353 -230
-232 -316 -456 -276 -721 43 -284 175 -444 470 -567 160 -66 416 -108 582 -96
413 31 1039 238 1217 403 157 146 156 318 -5 557 -22 33 -79 108 -126 167 -66
82 -89 104 -101 98 -8 -5 -41 -33 -73 -62 l-57 -53 97 -121 c177 -220 221
-321 177 -405 -67 -131 -679 -348 -1099 -390 -201 -21 -425 20 -610 110 -176
86 -249 182 -282 368 -39 226 38 410 260 619 108 102 201 167 322 224 132 64
184 74 337 68 145 -6 262 -31 588 -125 346 -99 410 -113 550 -119 91 -4 139
-2 176 8 l51 14 -39 -72 c-46 -85 -59 -175 -38 -265 49 -215 277 -472 513
-579 147 -66 461 -152 817 -223 124 -25 236 -47 249 -49 23 -3 25 2 42 86 11
49 17 91 15 93 -1 2 -93 21 -202 42 -371 73 -671 151 -825 216 -209 87 -415
323 -427 487 -4 49 0 63 26 110 75 130 200 246 337 313 135 67 223 86 385 87
245 0 382 -48 1240 -432 403 -181 702 -291 935 -346 110 -26 136 -29 315 -29
182 0 202 2 305 29 189 48 374 128 658 282 213 117 391 201 492 235 85 28 118
33 223 37 349 12 707 -132 1224 -492 83 -58 154 -104 157 -101 4 2 29 36 56
75 l49 72 -24 19 c-60 46 -433 291 -517 338 -338 191 -632 281 -918 281 -222
0 -382 -56 -792 -276 -397 -213 -568 -280 -788 -310 -165 -22 -313 -4 -568 70
-180 53 -434 156 -937 381 -704 315 -893 371 -1190 354z"/>
<path d="M900 2544 c-142 -52 -257 -164 -507 -498 l-112 -149 51 -39 c28 -21
54 -38 57 -38 3 1 49 60 101 132 182 249 336 414 427 454 18 8 59 14 91 14
l59 0 12 61 c7 34 10 63 8 65 -3 3 -36 7 -73 10 -49 3 -82 0 -114 -12z"/>
<path d="M3765 2103 c-22 -48 -34 -87 -29 -92 5 -4 86 -40 179 -81 393 -169
794 -362 975 -470 155 -91 270 -186 256 -209 -18 -29 -283 -80 -598 -116 -361
-40 -934 -78 -1583 -106 -276 -11 -294 -15 -317 -64 -9 -21 -4 -95 7 -95 3 0
33 20 66 45 34 25 64 44 66 41 2 -2 -8 -29 -23 -60 -16 -30 -25 -58 -22 -61
14 -14 1154 48 1563 86 810 73 1035 143 1035 321 0 213 -302 403 -1406 888
l-132 58 -37 -85z"/>
<path d="M381 1738 c-35 -61 -37 -56 56 -109 28 -17 71 -48 96 -69 40 -35 53
-56 70 -112 5 -15 10 -15 66 -1 51 13 61 19 61 37 0 40 -51 125 -103 172 -46
41 -190 134 -208 134 -4 0 -21 -24 -38 -52z"/>
</g>
</svg>
